<svg xmlns="http://www.w3.org/2000/svg" viewBox="0 0 147.56 28.2"><defs><style>.cls-1{fill:#fff;}</style></defs><title>Asset 3</title><g id="Layer_2" data-name="Layer 2"><g id="Layer_1-2" data-name="Layer 1"><g id="LieferandoDE"><g id="LieferandoDE_Full_Colour" data-name="LieferandoDE Full Colour"><path id="House" class="cls-1" d="M13.12.3a1.5,1.5,0,0,1,1.8,0c1.4.9,2.7,1.8,4,2.8,0,0,.3.2.4-.2a4.13,4.13,0,0,1,.1-1.5.75.75,0,0,1,.7-.5s1.5.1,2.5.2a1,1,0,0,1,.8.9s.6,4.2.8,5.7a4.69,4.69,0,0,0,1.2,2.1,42,42,0,0,1,2.5,3.8s.5,1.1-.6,1.2c0,0-2.1.2-2.3.3a.56.56,0,0,0-.5.6h0s-.1,7.3-.6,10.9c0,0-.1,1.4-.9,1.4,0,0-2.1-.1-2.6-.1,0,0-.2,0-.2-.3,0,0,1.1-11.4.4-17.2a1,1,0,0,0-.6-.9s-.5-.2-1,.5a18.09,18.09,0,0,0-3.4,10.3,6.8,6.8,0,0,0,.2,2.3s.2.3,1.1.4l1.1.2s.2,0,.2.3c0,0-.3,3.4-.3,4a.6.6,0,0,1-.1.4.58.58,0,0,1-.4.1h-5.5a.49.49,0,0,1-.3-.1c-.1-.2-.3-4.3-.3-4.9,0-.1.1-.2.2-.3a3,3,0,0,0,1.4-2.2,7.85,7.85,0,0,0,0-1.9s.2-6.4.2-7.5c0,0,.1-.3-.4-.4a.38.38,0,0,0-.5.3h0s-.3,4.3-.3,5.9c0,0,.1,1.1-.6,1.1,0,0-.7.1-.8-.8,0,0,.1-4.1.2-6.2a.43.43,0,0,0-.4-.4c-.2-.1-.5.1-.5.4h0s-.3,4-.3,6c0,0,.1,1-.7,1,0,0-.7.1-.7-.8,0,0,.2-5.7.2-6.1a.46.46,0,0,0-.4-.5h-.1c-.2,0-.5.1-.5.4v.1S7,17.9,7,19.9a3.63,3.63,0,0,0,1.5,2.9.37.37,0,0,1,.2.3s.2,3.6.3,4.8c0,0,.1.3-.2.3L5,28s-.6.1-.8-.7a95,95,0,0,1-.7-11.5.56.56,0,0,0-.5-.6s-1.9-.2-2.4-.3a.83.83,0,0,1-.6-1c0-.1.1-.1.1-.2A41.22,41.22,0,0,1,13.12.3Z"/></g><g id="TakeawayCOM-2"><path class="cls-1" d="M44.92,12.3V10.5a.43.43,0,0,0-.4-.4h-9.8a.43.43,0,0,0-.4.4v1.8a.43.43,0,0,0,.4.4h3.2a.22.22,0,0,1,.2.2V23.1a.43.43,0,0,0,.4.4h2.2a.43.43,0,0,0,.4-.4V12.9a.22.22,0,0,1,.2-.2h3.2a.43.43,0,0,0,.4-.4"/><path class="cls-1" d="M50.42,14.8a3,3,0,0,0-1.3-.9,7.61,7.61,0,0,0-2.1-.3,5.7,5.7,0,0,0-2.2.4,5.07,5.07,0,0,0-1.5.7.64.64,0,0,0,0,.6h0l.9.9h0a.38.38,0,0,0,.6,0h0a3,3,0,0,1,.7-.5,2.77,2.77,0,0,1,1.3-.3,2,2,0,0,1,1.3.4,2.17,2.17,0,0,1,.5,1.6.22.22,0,0,1-.2.2h-1.1a6.6,6.6,0,0,0-1.4.1,3.08,3.08,0,0,0-1.3.3,3.38,3.38,0,0,0-1.2.6,2.36,2.36,0,0,0-.8.9,3.19,3.19,0,0,0-.3,1.4,2.66,2.66,0,0,0,.3,1.2,5.5,5.5,0,0,0,.7.9,3.7,3.7,0,0,0,1.1.5,5,5,0,0,0,1.2.2,5.08,5.08,0,0,0,1.7-.3,2,2,0,0,0,1-.8h.2V23a.43.43,0,0,0,.4.4h1.8a.43.43,0,0,0,.4-.4V18.7a11.4,11.4,0,0,0-.2-2.6,1.46,1.46,0,0,0-.5-1.3m-1.7,5.3a1.43,1.43,0,0,1-.7,1.3,4.88,4.88,0,0,1-.7.3,2.2,2.2,0,0,1-.8.1,2.92,2.92,0,0,1-.9-.2c-.3-.1-.4-.4-.4-.8a.91.91,0,0,1,.3-.7,2,2,0,0,1,.8-.4,2.77,2.77,0,0,1,.9-.1h1.3a.22.22,0,0,1,.2.2Z"/><path class="cls-1" d="M78.92,14.8a3,3,0,0,0-1.3-.9,7.61,7.61,0,0,0-2.1-.3,5.7,5.7,0,0,0-2.2.4,8,8,0,0,0-1.6.8.64.64,0,0,0,0,.6h0l.9.9h0a.37.37,0,0,0,.6,0,3,3,0,0,1,.7-.5,2.77,2.77,0,0,1,1.3-.3,2,2,0,0,1,1.3.4,2.17,2.17,0,0,1,.5,1.6.22.22,0,0,1-.2.2h-1.1a6.6,6.6,0,0,0-1.4.1,3.08,3.08,0,0,0-1.3.3,3.38,3.38,0,0,0-1.2.6,2.36,2.36,0,0,0-.8.9,3.19,3.19,0,0,0-.3,1.4,2.66,2.66,0,0,0,.3,1.2,5.5,5.5,0,0,0,.7.9,3.7,3.7,0,0,0,1.1.5,4.77,4.77,0,0,0,2.9-.1,2,2,0,0,0,1-.8h.2v.4a.43.43,0,0,0,.4.4h2a.43.43,0,0,0,.4-.4V18.8a11.4,11.4,0,0,0-.2-2.6,3.51,3.51,0,0,0-.6-1.4m-1.8,5.3a1.43,1.43,0,0,1-.7,1.3,4.88,4.88,0,0,1-.7.3,2.2,2.2,0,0,1-.8.1,2.92,2.92,0,0,1-.9-.2c-.3-.1-.4-.4-.4-.8a.91.91,0,0,1,.3-.7,2,2,0,0,1,.8-.4,2.77,2.77,0,0,1,.9-.1h1.3a.22.22,0,0,1,.2.2Z"/><path class="cls-1" d="M103.42,14.8a3,3,0,0,0-1.3-.9,7.61,7.61,0,0,0-2.1-.3,5.7,5.7,0,0,0-2.2.4,4.13,4.13,0,0,0-1.5.7.64.64,0,0,0,0,.6h0l.9.9h0a.37.37,0,0,0,.6,0,3,3,0,0,1,.7-.5,2.77,2.77,0,0,1,1.3-.3,2,2,0,0,1,1.3.4,2.17,2.17,0,0,1,.5,1.6.22.22,0,0,1-.2.2h-1.1a6.6,6.6,0,0,0-1.4.1,3.08,3.08,0,0,0-1.3.3,3.38,3.38,0,0,0-1.2.6,2.36,2.36,0,0,0-.8.9,3.19,3.19,0,0,0-.3,1.4,2.66,2.66,0,0,0,.3,1.2,3.11,3.11,0,0,0,.7.9,3.7,3.7,0,0,0,1.1.5,4.77,4.77,0,0,0,2.9-.1,2,2,0,0,0,1-.8h.2V23a.43.43,0,0,0,.4.4h1.8a.43.43,0,0,0,.4-.4V18.7a11.4,11.4,0,0,0-.2-2.6,1.79,1.79,0,0,0-.5-1.3m-1.8,5.3a1.43,1.43,0,0,1-.7,1.3,4.88,4.88,0,0,1-.7.3,2.2,2.2,0,0,1-.8.1,2.92,2.92,0,0,1-.9-.2c-.3-.1-.4-.4-.4-.8a.91.91,0,0,1,.3-.7,2,2,0,0,1,.8-.4,2.77,2.77,0,0,1,.9-.1h1.3a.22.22,0,0,1,.2.2Z"/><path class="cls-1" d="M69.52,14.8a3.59,3.59,0,0,0-1.4-1,5.66,5.66,0,0,0-1.8-.3,6.45,6.45,0,0,0-2,.3,3.36,3.36,0,0,0-1.6,1,5.27,5.27,0,0,0-1.1,1.5,6.94,6.94,0,0,0,0,4.5,3.27,3.27,0,0,0,1.1,1.5,5.37,5.37,0,0,0,1.6,1,6.45,6.45,0,0,0,2,.3,5.85,5.85,0,0,0,2.2-.5,4.51,4.51,0,0,0,1.4-1,.64.64,0,0,0,0-.6l-1.3-1h0l-.1-.1c-.2-.1-.4-.1-.5.1a2.65,2.65,0,0,1-.6.5,2.35,2.35,0,0,1-2.6-.2,2.36,2.36,0,0,1-.7-1.6.22.22,0,0,1,.2-.2h6a.43.43,0,0,0,.4-.4v-.4a6.45,6.45,0,0,0-.3-2,8,8,0,0,0-.9-1.4m-1.9,2.5h-3.3a.22.22,0,0,1-.2-.2c0-.1.1-.3.1-.4a1,1,0,0,1,.4-.5,2.09,2.09,0,0,1,.6-.4,2.2,2.2,0,0,1,.8-.1,2.11,2.11,0,0,1,1.3.5,1.91,1.91,0,0,1,.5,1,.35.35,0,0,1-.2.1"/><path class="cls-1" d="M58.52,18.8h0a1.09,1.09,0,0,1-.1-.5l3.3-4.2a.19.19,0,0,0,0-.3H59a.91.91,0,0,0-.7.3h0l-.1.2-2.6,3.3h-.2V9.5a.43.43,0,0,0-.4-.4h-2.1a.43.43,0,0,0-.4.4V23.1a.43.43,0,0,0,.4.4h2a.43.43,0,0,0,.4-.4V19.2h.2L58,22.9h0l.1.2h0a.91.91,0,0,0,.7.3h2.9c.1-.1.1-.2,0-.2Z"/><path class="cls-1" d="M95.52,14.4v-.3h0c0-.2-.2-.3-.4-.3h-1.6a1,1,0,0,0-.9.7h0v.2l-1.4,5-.1.1c-.1,0-.1,0-.1-.1v-.1h0l-1.4-5.1h0v-.1a.76.76,0,0,0-.8-.6H87a1,1,0,0,0-.9.7h0v.1l-1.3,5c0,.1-.1.1-.2,0h0l-1.5-5-.1-.2h0a.87.87,0,0,0-.8-.6h-1.9c-.2,0-.4.1-.4.3h0v.3l2.9,8.5V23a.75.75,0,0,0,.7.5h1.7a1,1,0,0,0,.8-.6h0l.1-.2,1.4-4.9.1-.1a.1.1,0,0,1,.1.1l1.6,5c0,.1.1.2.1.3a.75.75,0,0,0,.7.5h1.7a.75.75,0,0,0,.7-.5h0a1,1,0,0,0,.1-.3l2.9-8.4h0"/><path class="cls-1" d="M114.32,14.1h0c-.1-.2-.2-.3-.4-.3h-1.7a1,1,0,0,0-.8.5h0v.1h0v.3h0l-1.6,5.1h0c0,.1-.1.1-.2.1s-.2,0-.2-.1l-1.9-5.2v-.1l-.1-.3a.67.67,0,0,0-.7-.4h-2c-.1,0-.2.1-.3.2v.1h0v.2l3.7,9.1V24h0l-.1.2c-.1.2-.2.5-.3.7s-.2.3-.3.5a2.19,2.19,0,0,1-.5.3,2,2,0,0,1-.8.1h-1.2a.43.43,0,0,0-.4.4v1.6a.43.43,0,0,0,.4.4h1.7a5,5,0,0,0,1.7-.2,2.07,2.07,0,0,0,1-.6,3.59,3.59,0,0,0,.7-1,5,5,0,0,0,.5-1.3l4-10.8c-.2-.1-.2-.1-.2-.2"/><path class="cls-1" d="M113.92,21.6a.91.91,0,0,0-.7.3,1.06,1.06,0,0,0,1.5,1.5h0a1.09,1.09,0,0,0,0-1.5,1.14,1.14,0,0,0-.8-.3"/><path class="cls-1" d="M131.72,14.9a4.92,4.92,0,0,0-1.5-1,5.26,5.26,0,0,0-3.9,0,3.07,3.07,0,0,0-1.5,1,4,4,0,0,0-1,1.5,9.27,9.27,0,0,0-.4,2.4,5.7,5.7,0,0,0,.4,2.2,5.07,5.07,0,0,0,2.5,2.5,5.26,5.26,0,0,0,3.9,0,3.07,3.07,0,0,0,1.5-1,4,4,0,0,0,1-1.5,7.8,7.8,0,0,0,.4-2.2,6.05,6.05,0,0,0-.4-2.4,3.07,3.07,0,0,0-1-1.5m-.5,5.5a3.88,3.88,0,0,1-.6,1.1,3.59,3.59,0,0,1-1,.7,3.87,3.87,0,0,1-2.6,0,3.59,3.59,0,0,1-1-.7,2.38,2.38,0,0,1-.6-1.1,7.77,7.77,0,0,1-.2-1.6,11,11,0,0,1,.2-1.8,3.32,3.32,0,0,1,1.7-1.8,3.87,3.87,0,0,1,2.6,0,3.59,3.59,0,0,1,1,.7,2.38,2.38,0,0,1,.6,1.1,11,11,0,0,1,.2,1.8,5,5,0,0,1-.3,1.6"/><path class="cls-1" d="M117.52,15.9a1.83,1.83,0,0,1,1-.7,3,3,0,0,1,1.3-.2,5,5,0,0,1,1.2.2,3.51,3.51,0,0,1,.8.5.63.63,0,0,0,.6,0l.5-.5c.2-.1.2-.4,0-.6a5.67,5.67,0,0,0-1.3-.8,6.17,6.17,0,0,0-3.8,0,4,4,0,0,0-1.5,1,5.6,5.6,0,0,0-1,1.5,8.59,8.59,0,0,0,0,4.5,3.77,3.77,0,0,0,.9,1.5,4,4,0,0,0,1.5,1,5,5,0,0,0,3.8,0,3.53,3.53,0,0,0,1.3-.8.64.64,0,0,0,0-.6l-.5-.4a.64.64,0,0,0-.6,0,3,3,0,0,1-2,.8,3.08,3.08,0,0,1-1.3-.3,2.18,2.18,0,0,1-.9-.7,2.38,2.38,0,0,1-.6-1.1,8.81,8.81,0,0,1-.2-1.7,9.85,9.85,0,0,1,.2-1.7,7,7,0,0,0,.6-.9"/><path class="cls-1" d="M147.42,15.8a3.38,3.38,0,0,0-.6-1.2,2.1,2.1,0,0,0-1.1-.7,4.53,4.53,0,0,0-1.6-.3,3.29,3.29,0,0,0-1.7.4,4.74,4.74,0,0,0-1,1h0v.1h-.1a.1.1,0,0,1-.1-.1v-.1c0-.1-.1-.1-.1-.2a2.65,2.65,0,0,0-.5-.6,2,2,0,0,0-.8-.4,4.48,4.48,0,0,0-2.3,0,3.55,3.55,0,0,0-.9.4,3,3,0,0,0-.7.5l-.2.2h-.1c-.1,0-.1,0-.1-.1v-.6a.43.43,0,0,0-.4-.4h-.5a.43.43,0,0,0-.4.4v9a.43.43,0,0,0,.4.4h.6a.43.43,0,0,0,.4-.4V18.4a3.4,3.4,0,0,1,.2-1.4,3.7,3.7,0,0,1,.5-1.1,2.18,2.18,0,0,1,.9-.7,2.74,2.74,0,0,1,1.3-.2,1.38,1.38,0,0,1,1.3.6,4.81,4.81,0,0,1,.4,2.1v5.4a.43.43,0,0,0,.4.4h.6a.43.43,0,0,0,.4-.4V17.6a2.15,2.15,0,0,1,.2-1.1,2.18,2.18,0,0,1,.5-.8,3,3,0,0,1,.7-.5,2.39,2.39,0,0,1,.9-.2,2.15,2.15,0,0,1,1.1.2,1.79,1.79,0,0,1,.7.5,1.14,1.14,0,0,1,.3.8,2.77,2.77,0,0,1,.1.9v5.7a.43.43,0,0,0,.4.4h.6a.43.43,0,0,0,.4-.4V17.3a3.81,3.81,0,0,0-.1-1.5"/></g></g></g></g></svg>